<svg width="964mm" height="565mm" viewBox="0 0 964 565" version="1.1" id="svg5" xml:space="preserve"
    inkscape:version="1.2.2 (732a01da63, 2022-12-09)" sodipodi:docname="All Lots.svg"
    xmlns:inkscape="http://www.inkscape.org/namespaces/inkscape"
    xmlns:sodipodi="http://sodipodi.sourceforge.net/DTD/sodipodi-0.dtd" xmlns="http://www.w3.org/2000/svg"
    xmlns:svg="http://www.w3.org/2000/svg">
    <sodipodi:namedview id="namedview7" pagecolor="#ffffff" bordercolor="#000000" borderopacity="0.25"
        inkscape:showpageshadow="2" inkscape:pageopacity="0.0" inkscape:pagecheckerboard="0"
        inkscape:deskcolor="#d1d1d1" inkscape:document-units="mm" showgrid="false" inkscape:zoom="0.35355339"
        inkscape:cx="1790.3944" inkscape:cy="886.7119" inkscape:window-width="1920" inkscape:window-height="1001"
        inkscape:window-x="-9" inkscape:window-y="-9" inkscape:window-maximized="1" inkscape:current-layer="svg5" />
    <defs id="defs2">
        <pattern id="EMFhbasepattern" patternUnits="userSpaceOnUse" width="6" height="6" x="0" y="0" />
        <pattern id="EMFhbasepattern-3" patternUnits="userSpaceOnUse" width="6" height="6" x="0" y="0" />
        <pattern id="EMFhbasepattern-39" patternUnits="userSpaceOnUse" width="6" height="6" x="0" y="0" />
        <pattern id="EMFhbasepattern-2" patternUnits="userSpaceOnUse" width="6" height="6" x="0" y="0" />
        <pattern id="EMFhbasepattern-8" patternUnits="userSpaceOnUse" width="6" height="6" x="0" y="0" />
        <pattern id="EMFhbasepattern-6" patternUnits="userSpaceOnUse" width="6" height="6" x="0" y="0" />
        <pattern id="EMFhbasepattern-7" patternUnits="userSpaceOnUse" width="6" height="6" x="0" y="0" />
        <pattern id="EMFhbasepattern-4" patternUnits="userSpaceOnUse" width="6" height="6" x="0" y="0" />
        <pattern id="EMFhbasepattern-1" patternUnits="userSpaceOnUse" width="6" height="6" x="0" y="0" />
        <pattern id="EMFhbasepattern-16" patternUnits="userSpaceOnUse" width="6" height="6" x="0" y="0" />
        <pattern id="EMFhbasepattern-5" patternUnits="userSpaceOnUse" width="6" height="6" x="0" y="0" />
    </defs>
    <g inkscape:groupmode="layer" id="layer2" inkscape:label="SVG" style="display:inline">
        <path style="fill:#P1#;stroke-width:0.212076;fill-opacity:1"
            d="m 476.83342,508 7.22717,2.39993 1.60599,1.60003 15.25756,0.80008 15.25763,4.00003 17.66677,2.39993 H 547.5 l 4.01512,2.39993 H 574 V 564 h -90.74244 v -3.20007 l -2.40902,2.39992 L 476.83342,564 H 468 v -54.39996 z"
            id="path1193" sodipodi:nodetypes="ccccccccccccccccc" />
        <path style="fill:#P2#;stroke-width:0.211671;fill-opacity:1"
            d="m 578,451.2 h 5.6 V 448 h 44.8 v 3.2 h 10.4 v 19.2 h 3.2 v 71.2 h -4 v 17.6 l -1.6,1.6 v 3.2 h -56.8 v -2.4 L 578,556 v -80.8 h 3.2 v 7.2 H 598 v -7.2 h -20 z"
            id="path1404" sodipodi:nodetypes="ccccccccccccccccccccccc" />
        <rect style="fill:#P3#;stroke-width:0.210689;fill-opacity:1" id="rect1440" width="4" height="26" x="666"
            y="485" />
        <path style="fill:#P5#;stroke-width:0.21006;fill-opacity:1"
            d="m 561.58877,356 v 6.34776 L 560,363.93473 v 4.76098 l 1.58877,1.58694 v 23.01082 l 2.38315,8.72828 7.94402,13.48907 2.38316,5.55444 0.79438,7.93474 h 52.42989 l 0.79438,-3.17388 h 5.56069 l 0.79438,1.58694 h 1.58877 l 0.79438,-1.58694 h 3.97196 v -0.79347 H 645 V 356 Z"
            id="path1152" sodipodi:nodetypes="ccccccccccccccccccccc" />
        <path style="fill:#P6#;stroke-width:0.210531;fill-opacity:1"
            d="m 566.96303,304.11811 h 68.4816 v 16.69553 H 645 V 227 h -82.0186 l -1.59239,1.59014 v 60.42235 L 559,293.78258 v 13.51553 l 2.38901,4.77009 V 355 H 645 v -34.18636 h -78.03697 z"
            id="path985" sodipodi:nodetypes="cccccccccccccccc" />
        <path style="fill:#P9#;stroke-width:0.264583;fill-opacity:1"
            d="m 815,141 h 3 v -5 h 5 v 5 h 6 v 10 h -10 v 12 h -4 z" id="path598" sodipodi:nodetypes="ccccccccccc" />
        <path style="fill:#P10#;stroke-width:0.264583;fill-opacity:1" d="m 825,108 v 2 h 7 v 2 h 4 v -2 h 9 v -2 z"
            id="path602" sodipodi:nodetypes="ccccccccc" />
        <rect style="fill:#P10#;stroke-width:0.27192;fill-opacity:1" id="rect604" width="5" height="9" x="836"
            y="83" />
        <rect style="fill:#P11#;stroke-width:0.260049;fill-opacity:1" id="rect588" width="59" height="34" x="712"
            y="95" />
        <rect style="fill:#Barstow_Ave#;stroke-width:0.295384;fill-opacity:1" id="rect590" width="7" height="2" x="727"
            y="141" />
        <rect style="fill:#Barstow_Ave#;stroke-width:0.281732;fill-opacity:1" id="rect592" width="7" height="2" x="747"
            y="138" />
        <rect style="fill:#Barstow_Ave#;stroke-width:0.318985;fill-opacity:1" id="rect594" width="4" height="2" x="756"
            y="138" />
        <path style="fill:#Post_Harvest#;stroke-width:0.264583;fill-opacity:1"
            d="m 916,178 v -12 h -21 v -17 h -9 v 25 l 5.77627,3.70935 z" id="path608" sodipodi:nodetypes="cccccccc" />
        <rect style="fill:#P10#;stroke-width:0.26877;fill-opacity:1" id="rect606" width="3" height="12.480929" x="836"
            y="60" />
        <path style="fill:#P13#;stroke-width:0.264583;fill-opacity:1" d="m 526,134 v 7 h 4 l 2,4 h 18 l -1,-11 z"
            id="path534" sodipodi:nodetypes="ccccccc" />
        <path style="fill:#P15#;stroke-width:0.20915;fill-opacity:1"
            d="m 441.4783,135 v 3.19376 l -3.13054,2.39545 v 3.99224 L 436,146.97673 v 87.03103 l 2.34776,2.39528 h 1.56527 V 238 h 10.1739 v -2.39528 L 454,231.61246 v -93.4187 h -8.68214 l -0.15527,-3.08818 z"
            id="path508" sodipodi:nodetypes="cccccccccccccccc" />
        <path style="fill:#P27#;stroke-width:0.210682;fill-opacity:1"
            d="m 0,514.58272 h 3.94449 v 5.62592 l 1.577722,2.41088 8.677794,10.448 16.566648,16.0736 12.622238,8.84049 L 52.066658,562 H 71 V 433.41102 H 69.422224 V 431 H 4.73333 L 4.32822,433.17762 0,433.41102 Z"
            id="path1499" sodipodi:nodetypes="cccccccccccccccc" />
        <rect style="fill:#Rowell_Ave#;stroke-width:0.203458;fill-opacity:1" id="rect1608" width="40" height="3"
            x="78.900002" y="558" />
        <rect style="fill:#Scott_Ave#;stroke-width:0.230162;fill-opacity:1" id="rect1606" width="17" height="4" x="83"
            y="429" />
        <rect style="fill:#SMC_1#;stroke-width:0.212793;fill-opacity:1" id="rect1260" width="70" height="71" x="656"
            y="367" />
        <rect style="fill:#SMC_2#;stroke-width:0.211175;fill-opacity:1" id="rect1262" width="58" height="81" x="729"
            y="357" />
        <rect style="fill:#SMC_3#;stroke-width:0.252916;fill-opacity:1" id="rect1264" width="68" height="81" x="791"
            y="357" />
        <rect style="fill:#SMC_4#;stroke-width:0.214597;fill-opacity:1" id="rect1266" width="58" height="29" x="659"
            y="444" />
    </g>
    <path style="display:inline;fill:#P20#;stroke-width:0.264583;fill-opacity:1"
        d="m 119,0 v 68.000005 l -8,16 V 124 H 294 V 84.000005 h -7 v -3.47083 l -73,-0.52917 -8,-15.00001 V 0 Z"
        id="path431" sodipodi:nodetypes="cccccccccccc" />
    <rect style="fill:#Equestrian#;stroke-width:0.276274;fill-opacity:1" id="rect1101" width="5" height="10" x="705"
        y="266" />
    <rect style="fill:#Animal_Science#;stroke-width:0.262609;fill-opacity:1" id="rect596" width="4" height="4" x="658" y="105" />
    <path style="fill:#Creamery#;stroke-width:0.264583;fill-opacity:1" d="m 502,136 v 5 h 2 v -2 h 7 v -3 z" id="path910"
        sodipodi:nodetypes="ccccccc" />
    <path style="fill:#E_Portals#;stroke-width:0.264583;fill-opacity:1" d="m 537,83.999995 v 4 h 68 v -4 z" id="path561"
        sodipodi:nodetypes="ccccc" />
    <rect style="fill:#Ornamental_Horticulture#;stroke-width:0.237603;fill-opacity:1" id="rect850" width="25" height="4" x="939" y="-115"
        transform="scale(1,-1)" />
    <path style="fill:#P27#;stroke-width:4;fill-opacity:1"
        d="M 177.82048,2112.8192 C 144.5409,2094.679 112.93472,2069.5841 77.719336,2033.3402 24.991291,1979.0723 16,1967.4937 16,1953.8608 16,1944.6667 14.20136,1942 8,1942 c -7.8596492,0 -8,-2.6667 -8,-152 v -152 h 10 c 5.5,0 10,-1.8 10,-4 0,-2.5765 42.09524,-4 118.28572,-4 97.18095,0 119.30526,1.0196 124,5.7143 4.82554,4.8255 5.71428,43.0857 5.71428,246 V 2122 l -37,-0.1808 c -30.36216,-0.1484 -39.90262,-1.7629 -53.17952,-9 z"
        id="path1886" transform="scale(0.26458333)" />
    <path style="fill:#P27#;stroke-width:1.41421;fill-opacity:1"
        d="m 231.22392,2120.6232 c -39.14534,-1.0087 -41.01317,-1.4373 -63.10087,-14.4795 -29.48071,-17.4076 -59.89136,-42.6691 -95.346845,-79.2029 -42.611096,-43.9069 -55.805642,-61.0152 -55.805642,-72.3586 0,-7.9641 -2.25192,-12.1153 -7.0979595,-13.0845 -2.3739116,-0.4748 -5.0786266,-2.2111 -6.0104779,-3.8584 -1.867075,-3.3006 -3.45321735,-100.7154 -3.71577628,-228.2087 L 0,1638.3664 h 7.7346259 c 5.2845191,0 9.6523451,-1.0079 13.7885821,-3.182 l 6.053956,-3.1819 H 139.30004 c 123.65163,0 121.61147,-0.1396 124.04649,8.4852 2.74935,9.7382 3.85624,89.1753 3.89683,279.6608 0.0236,111.0334 -0.43429,201.7598 -1.01766,201.6142 -0.58336,-0.1457 -16.33416,-0.6584 -35.00178,-1.1395 z"
        id="path1888" transform="scale(0.26458333)" />
    <path style="fill:#P27#;stroke-width:1.41421;fill-opacity:1"
        d="m 18.384776,1632.0859 c 0,-1.8615 2.147077,-2.1699 13.788583,-1.9807 l 13.788582,0.224 -12.020816,0.868 c -6.611448,0.4774 -12.81631,1.3687 -13.788582,1.9807 -1.134124,0.7139 -1.767767,0.3225 -1.767767,-1.092 z"
        id="path1890" transform="scale(0.26458333)" />
    <path style="fill:#P27#;stroke-width:1.41421;fill-opacity:1"
        d="m 231.22392,2120.5702 c -39.15832,-1.0703 -41.37604,-1.5545 -61.43478,-13.4136 -30.23145,-17.8734 -52.86021,-36.2738 -88.54397,-71.9986 -48.468064,-48.5238 -64.274607,-68.3124 -64.274607,-80.4672 0,-8.0707 -2.232341,-12.22 -7.0979595,-13.1931 -2.3739116,-0.4748 -5.0756986,-2.2111 -6.0039711,-3.8584 -1.9318821,-3.4284 -3.49045897,-96.5332 -3.72552346,-222.5518 L 0,1638.3664 h 7.9648027 c 5.8009353,0 9.3548943,-0.8645 13.0814753,-3.182 l 5.116673,-3.1819 H 138.59293 c 124.42753,0 122.31747,-0.1436 124.7536,8.4852 2.74935,9.7382 3.85624,89.1753 3.89683,279.6608 0.0236,111.0334 -0.43429,201.7598 -1.01766,201.6142 -0.58336,-0.1457 -16.33416,-0.6823 -35.00178,-1.1925 z"
        id="path1892" transform="scale(0.26458333)" />
    <path style="fill:#P27#;stroke-width:1.41421;fill-opacity:1"
        d="m 227.68838,2120.601 c -35.58681,-1.0312 -37.80099,-1.5293 -57.04026,-12.8298 -29.68474,-17.4359 -54.08068,-37.2503 -89.40295,-72.6132 -48.468064,-48.5238 -64.274607,-68.3124 -64.274607,-80.4672 0,-8.0707 -2.232341,-12.22 -7.0979595,-13.1931 -2.3739116,-0.4748 -5.0737311,-2.2111 -5.9995992,-3.8584 -1.9826953,-3.5277 -3.50762257,-92.7848 -3.72973853,-218.3092 L 0,1638.3664 h 7.4455644 c 5.1086176,0 9.2145136,-0.9987 13.0814756,-3.182 l 5.635911,-3.1819 H 138.59293 c 124.42753,0 122.31747,-0.1436 124.7536,8.4852 2.74935,9.7382 3.85624,89.1753 3.89683,279.6608 l 0.043,201.8789 -3.88908,-0.2522 c -2.139,-0.1387 -18.208,-0.6671 -35.7089,-1.1742 z"
        id="path1894" transform="scale(0.26458333)" />
    <path style="fill:#P27#;stroke-width:1.41421;fill-opacity:1"
        d="m 223.44574,2120.5879 c -32.02683,-1.1097 -34.28181,-1.729 -57.68515,-15.8447 -30.57187,-18.4393 -56.7288,-40.447 -95.369653,-80.2413 -41.172834,-42.402 -53.420374,-58.4381 -53.420374,-69.9452 0,-7.3466 -2.725078,-12.1844 -7.3887813,-13.1172 -2.2139596,-0.4427 -4.7767302,-2.1529 -5.6950457,-3.8002 -2.0915326,-3.7519 -3.56826557,-86.5727 -3.75386498,-210.531 L 0,1638.3664 h 7.1274074 c 4.6844086,0 9.1682316,-1.0906 13.0814756,-3.182 l 5.954068,-3.1819 H 137.88582 c 121.4542,0 122.49287,0.061 125.28966,7.4176 2.93659,7.7238 4.03743,83.3956 4.0736,280.0213 l 0.0373,202.586 -8.13172,-0.242 c -4.47246,-0.133 -20.54146,-0.6719 -35.7089,-1.1975 z"
        id="path1896" transform="scale(0.26458333)" />
    <path style="fill:#P27#;stroke-width:1.41421;fill-opacity:1"
        d="m 220.61732,2120.6305 c -28.00545,-1.0315 -33.00307,-2.4161 -53.53465,-14.8314 -30.22929,-18.2795 -57.16942,-40.8247 -94.552603,-79.1276 -42.365965,-43.4083 -55.559504,-60.3085 -55.559504,-71.1686 0,-7.2098 -2.443979,-11.6501 -7.5976556,-13.8034 -2.6329709,-1.1001 -5.28973,-3.1376 -5.903909,-4.5278 -1.6702238,-3.7804 -3.188658,-96.4633 -3.33723131,-203.6994 L 0,1638.3664 h 6.4415504 c 3.7699326,0 9.1954446,-1.3197 13.0814756,-3.182 l 6.639925,-3.1819 113.137089,0.054 c 73.54395,0.035 114.62182,0.5619 117.37972,1.5057 2.33345,0.7985 5.06463,3.1437 6.06928,5.2114 3.38081,6.9582 4.46209,74.3978 4.50004,280.6682 l 0.0373,202.586 -10.96015,-0.2426 c -6.02809,-0.1335 -22.09709,-0.6529 -35.70889,-1.1543 z"
        id="path1898" transform="scale(0.26458333)" />
</svg>